<svg width="460" height="169" viewBox="0 0 460 169" fill="none" xmlns="http://www.w3.org/2000/svg">
<rect width="460" height="169" fill="white"/>
<rect x="26.5" y="19.5" width="160" height="76" stroke="#767676"/>
<path d="M73.0568 52V43.2727H74.1136V47.1591H78.767V43.2727H79.8239V52H78.767V48.0966H74.1136V52H73.0568ZM84.4624 52.1364C83.8714 52.1364 83.353 51.9957 82.907 51.7145C82.4638 51.4332 82.1172 51.0398 81.8672 50.5341C81.62 50.0284 81.4964 49.4375 81.4964 48.7614C81.4964 48.0795 81.62 47.4844 81.8672 46.9759C82.1172 46.4673 82.4638 46.0724 82.907 45.7912C83.353 45.5099 83.8714 45.3693 84.4624 45.3693C85.0533 45.3693 85.5703 45.5099 86.0135 45.7912C86.4595 46.0724 86.8061 46.4673 87.0533 46.9759C87.3033 47.4844 87.4283 48.0795 87.4283 48.7614C87.4283 49.4375 87.3033 50.0284 87.0533 50.5341C86.8061 51.0398 86.4595 51.4332 86.0135 51.7145C85.5703 51.9957 85.0533 52.1364 84.4624 52.1364ZM84.4624 51.233C84.9112 51.233 85.2805 51.1179 85.5703 50.8878C85.8601 50.6577 86.0746 50.3551 86.2138 49.9801C86.353 49.6051 86.4226 49.1989 86.4226 48.7614C86.4226 48.3239 86.353 47.9162 86.2138 47.5384C86.0746 47.1605 85.8601 46.8551 85.5703 46.6222C85.2805 46.3892 84.9112 46.2727 84.4624 46.2727C84.0135 46.2727 83.6442 46.3892 83.3544 46.6222C83.0646 46.8551 82.8501 47.1605 82.7109 47.5384C82.5717 47.9162 82.5021 48.3239 82.5021 48.7614C82.5021 49.1989 82.5717 49.6051 82.7109 49.9801C82.8501 50.3551 83.0646 50.6577 83.3544 50.8878C83.6442 51.1179 84.0135 51.233 84.4624 51.233ZM93.5998 46.9205L92.6964 47.1761C92.6396 47.0256 92.5558 46.8793 92.445 46.7372C92.337 46.5923 92.1893 46.473 92.0018 46.3793C91.8143 46.2855 91.5742 46.2386 91.2816 46.2386C90.881 46.2386 90.5472 46.331 90.2802 46.5156C90.016 46.6974 89.8839 46.929 89.8839 47.2102C89.8839 47.4602 89.9748 47.6577 90.1566 47.8026C90.3384 47.9474 90.6225 48.0682 91.0089 48.1648L91.9805 48.4034C92.5657 48.5455 93.0018 48.7628 93.2887 49.0554C93.5756 49.3452 93.7191 49.7187 93.7191 50.1761C93.7191 50.5511 93.6112 50.8864 93.3952 51.1818C93.1822 51.4773 92.8839 51.7102 92.5004 51.8807C92.1168 52.0511 91.6708 52.1364 91.1623 52.1364C90.4947 52.1364 89.9421 51.9915 89.5046 51.7017C89.0671 51.4119 88.7901 50.9886 88.6737 50.4318L89.6282 50.1932C89.7191 50.5455 89.891 50.8097 90.1438 50.9858C90.3995 51.1619 90.7333 51.25 91.1452 51.25C91.614 51.25 91.9862 51.1506 92.2617 50.9517C92.5401 50.75 92.6793 50.5085 92.6793 50.2273C92.6793 50 92.5998 49.8097 92.4407 49.6562C92.2816 49.5 92.0373 49.3835 91.7077 49.3068L90.6168 49.0511C90.0174 48.9091 89.5771 48.6889 89.2958 48.3906C89.0174 48.0895 88.8782 47.7131 88.8782 47.2614C88.8782 46.892 88.9819 46.5653 89.1893 46.2812C89.3995 45.9972 89.685 45.7741 90.0458 45.6122C90.4094 45.4503 90.8214 45.3693 91.2816 45.3693C91.9293 45.3693 92.4379 45.5114 92.8072 45.7955C93.1793 46.0795 93.4435 46.4545 93.5998 46.9205ZM98.0795 45.4545V46.3068H94.6875V45.4545H98.0795ZM95.6761 43.8864H96.6818V50.125C96.6818 50.4091 96.723 50.6222 96.8054 50.7642C96.8906 50.9034 96.9986 50.9972 97.1293 51.0455C97.2628 51.0909 97.4034 51.1136 97.5511 51.1136C97.6619 51.1136 97.7528 51.108 97.8239 51.0966C97.8949 51.0824 97.9517 51.071 97.9943 51.0625L98.1989 51.9659C98.1307 51.9915 98.0355 52.017 97.9134 52.0426C97.7912 52.071 97.6364 52.0852 97.4489 52.0852C97.1648 52.0852 96.8864 52.0241 96.6136 51.902C96.3438 51.7798 96.1193 51.5938 95.9403 51.3438C95.7642 51.0938 95.6761 50.7784 95.6761 50.3977V43.8864ZM107.876 45.4545C107.825 45.0227 107.618 44.6875 107.254 44.4489C106.891 44.2102 106.445 44.0909 105.916 44.0909C105.53 44.0909 105.192 44.1534 104.902 44.2784C104.615 44.4034 104.391 44.5753 104.229 44.794C104.07 45.0128 103.99 45.2614 103.99 45.5398C103.99 45.7727 104.045 45.973 104.156 46.1406C104.27 46.3054 104.415 46.4432 104.591 46.554C104.767 46.6619 104.952 46.7514 105.145 46.8224C105.338 46.8906 105.516 46.946 105.678 46.9886L106.564 47.2273C106.791 47.2869 107.044 47.3693 107.322 47.4744C107.604 47.5795 107.872 47.723 108.128 47.9048C108.386 48.0838 108.599 48.3139 108.767 48.5952C108.935 48.8764 109.018 49.2216 109.018 49.6307C109.018 50.1023 108.895 50.5284 108.648 50.9091C108.403 51.2898 108.045 51.5923 107.574 51.8168C107.105 52.0412 106.536 52.1534 105.865 52.1534C105.24 52.1534 104.699 52.0526 104.241 51.8509C103.787 51.6491 103.429 51.3679 103.168 51.0071C102.909 50.6463 102.763 50.2273 102.729 49.75H103.82C103.848 50.0795 103.959 50.3523 104.152 50.5682C104.348 50.7812 104.595 50.9403 104.893 51.0455C105.195 51.1477 105.518 51.1989 105.865 51.1989C106.268 51.1989 106.631 51.1335 106.952 51.0028C107.273 50.8693 107.527 50.6847 107.714 50.4489C107.902 50.2102 107.996 49.9318 107.996 49.6136C107.996 49.3239 107.915 49.0881 107.753 48.9062C107.591 48.7244 107.378 48.5767 107.114 48.4631C106.849 48.3494 106.564 48.25 106.257 48.1648L105.183 47.858C104.501 47.6619 103.962 47.3821 103.564 47.0185C103.166 46.6548 102.967 46.179 102.967 45.5909C102.967 45.1023 103.099 44.6761 103.364 44.3125C103.631 43.946 103.989 43.6619 104.438 43.4602C104.889 43.2557 105.393 43.1534 105.95 43.1534C106.513 43.1534 107.013 43.2543 107.45 43.456C107.888 43.6548 108.234 43.9276 108.49 44.2741C108.749 44.6207 108.885 45.0142 108.899 45.4545H107.876ZM113.364 52.1364C112.733 52.1364 112.189 51.9972 111.732 51.7188C111.277 51.4375 110.926 51.0455 110.679 50.5426C110.435 50.0369 110.313 49.4489 110.313 48.7784C110.313 48.108 110.435 47.517 110.679 47.0057C110.926 46.4915 111.27 46.0909 111.711 45.804C112.154 45.5142 112.671 45.3693 113.262 45.3693C113.603 45.3693 113.939 45.4261 114.272 45.5398C114.604 45.6534 114.907 45.8381 115.179 46.0938C115.452 46.3466 115.669 46.6818 115.831 47.0994C115.993 47.517 116.074 48.0312 116.074 48.642V49.0682H111.029V48.1989H115.051C115.051 47.8295 114.978 47.5 114.83 47.2102C114.685 46.9205 114.478 46.6918 114.208 46.5241C113.941 46.3565 113.625 46.2727 113.262 46.2727C112.861 46.2727 112.515 46.3722 112.222 46.571C111.932 46.767 111.709 47.0227 111.553 47.3381C111.397 47.6534 111.319 47.9915 111.319 48.3523V48.9318C111.319 49.4261 111.404 49.8452 111.574 50.1889C111.748 50.5298 111.988 50.7898 112.294 50.9688C112.601 51.1449 112.958 51.233 113.364 51.233C113.628 51.233 113.867 51.196 114.08 51.1222C114.296 51.0455 114.482 50.9318 114.638 50.7812C114.794 50.6278 114.915 50.4375 115 50.2102L115.972 50.483C115.87 50.8125 115.698 51.1023 115.456 51.3523C115.215 51.5994 114.917 51.7926 114.561 51.9318C114.206 52.0682 113.807 52.1364 113.364 52.1364ZM117.604 52V45.4545H118.576V46.4432H118.644C118.763 46.1193 118.979 45.8565 119.292 45.6548C119.604 45.4531 119.956 45.3523 120.348 45.3523C120.422 45.3523 120.515 45.3537 120.625 45.3565C120.736 45.3594 120.82 45.3636 120.877 45.3693V46.392C120.843 46.3835 120.765 46.3707 120.642 46.3537C120.523 46.3338 120.397 46.3239 120.263 46.3239C119.945 46.3239 119.661 46.3906 119.411 46.5241C119.164 46.6548 118.968 46.8366 118.823 47.0696C118.681 47.2997 118.61 47.5625 118.61 47.858V52H117.604ZM127.62 45.4545L125.2 52H124.177L121.757 45.4545H122.848L124.654 50.6705H124.723L126.529 45.4545H127.62ZM131.458 52.1364C130.827 52.1364 130.283 51.9972 129.826 51.7188C129.371 51.4375 129.02 51.0455 128.773 50.5426C128.529 50.0369 128.407 49.4489 128.407 48.7784C128.407 48.108 128.529 47.517 128.773 47.0057C129.02 46.4915 129.364 46.0909 129.804 45.804C130.248 45.5142 130.765 45.3693 131.355 45.3693C131.696 45.3693 132.033 45.4261 132.365 45.5398C132.698 45.6534 133 45.8381 133.273 46.0938C133.546 46.3466 133.763 46.6818 133.925 47.0994C134.087 47.517 134.168 48.0312 134.168 48.642V49.0682H129.123V48.1989H133.145C133.145 47.8295 133.071 47.5 132.924 47.2102C132.779 46.9205 132.571 46.6918 132.301 46.5241C132.034 46.3565 131.719 46.2727 131.355 46.2727C130.955 46.2727 130.608 46.3722 130.316 46.571C130.026 46.767 129.803 47.0227 129.647 47.3381C129.49 47.6534 129.412 47.9915 129.412 48.3523V48.9318C129.412 49.4261 129.498 49.8452 129.668 50.1889C129.841 50.5298 130.081 50.7898 130.388 50.9688C130.695 51.1449 131.051 51.233 131.458 51.233C131.722 51.233 131.961 51.196 132.174 51.1222C132.39 51.0455 132.576 50.9318 132.732 50.7812C132.888 50.6278 133.009 50.4375 133.094 50.2102L134.066 50.483C133.963 50.8125 133.792 51.1023 133.55 51.3523C133.309 51.5994 133.01 51.7926 132.655 51.9318C132.3 52.0682 131.901 52.1364 131.458 52.1364ZM135.698 52V45.4545H136.669V46.4432H136.738C136.857 46.1193 137.073 45.8565 137.385 45.6548C137.698 45.4531 138.05 45.3523 138.442 45.3523C138.516 45.3523 138.608 45.3537 138.719 45.3565C138.83 45.3594 138.914 45.3636 138.971 45.3693V46.392C138.936 46.3835 138.858 46.3707 138.736 46.3537C138.617 46.3338 138.49 46.3239 138.357 46.3239C138.039 46.3239 137.755 46.3906 137.505 46.5241C137.257 46.6548 137.061 46.8366 136.917 47.0696C136.775 47.2997 136.703 47.5625 136.703 47.858V52H135.698Z" fill="black"/>
<rect x="267.5" y="19.5" width="160" height="77" stroke="#767676"/>
<path d="M308.83 45.4545C308.778 45.0227 308.571 44.6875 308.207 44.4489C307.844 44.2102 307.398 44.0909 306.869 44.0909C306.483 44.0909 306.145 44.1534 305.855 44.2784C305.568 44.4034 305.344 44.5753 305.182 44.794C305.023 45.0128 304.943 45.2614 304.943 45.5398C304.943 45.7727 304.999 45.973 305.109 46.1406C305.223 46.3054 305.368 46.4432 305.544 46.554C305.72 46.6619 305.905 46.7514 306.098 46.8224C306.291 46.8906 306.469 46.946 306.631 46.9886L307.517 47.2273C307.744 47.2869 307.997 47.3693 308.276 47.4744C308.557 47.5795 308.825 47.723 309.081 47.9048C309.339 48.0838 309.553 48.3139 309.72 48.5952C309.888 48.8764 309.972 49.2216 309.972 49.6307C309.972 50.1023 309.848 50.5284 309.601 50.9091C309.357 51.2898 308.999 51.5923 308.527 51.8168C308.058 52.0412 307.489 52.1534 306.818 52.1534C306.193 52.1534 305.652 52.0526 305.195 51.8509C304.74 51.6491 304.382 51.3679 304.121 51.0071C303.862 50.6463 303.716 50.2273 303.682 49.75H304.773C304.801 50.0795 304.912 50.3523 305.105 50.5682C305.301 50.7812 305.548 50.9403 305.847 51.0455C306.148 51.1477 306.472 51.1989 306.818 51.1989C307.222 51.1989 307.584 51.1335 307.905 51.0028C308.226 50.8693 308.48 50.6847 308.668 50.4489C308.855 50.2102 308.949 49.9318 308.949 49.6136C308.949 49.3239 308.868 49.0881 308.706 48.9062C308.544 48.7244 308.331 48.5767 308.067 48.4631C307.803 48.3494 307.517 48.25 307.21 48.1648L306.136 47.858C305.455 47.6619 304.915 47.3821 304.517 47.0185C304.119 46.6548 303.92 46.179 303.92 45.5909C303.92 45.1023 304.053 44.6761 304.317 44.3125C304.584 43.946 304.942 43.6619 305.391 43.4602C305.842 43.2557 306.347 43.1534 306.903 43.1534C307.466 43.1534 307.966 43.2543 308.403 43.456C308.841 43.6548 309.188 43.9276 309.443 44.2741C309.702 44.6207 309.838 45.0142 309.852 45.4545H308.83ZM314.419 45.4545V46.3068H311.027V45.4545H314.419ZM312.016 43.8864H313.022V50.125C313.022 50.4091 313.063 50.6222 313.145 50.7642C313.23 50.9034 313.338 50.9972 313.469 51.0455C313.603 51.0909 313.743 51.1136 313.891 51.1136C314.002 51.1136 314.093 51.108 314.164 51.0966C314.235 51.0824 314.292 51.071 314.334 51.0625L314.539 51.9659C314.471 51.9915 314.375 52.017 314.253 52.0426C314.131 52.071 313.976 52.0852 313.789 52.0852C313.505 52.0852 313.226 52.0241 312.953 51.902C312.684 51.7798 312.459 51.5938 312.28 51.3438C312.104 51.0938 312.016 50.7784 312.016 50.3977V43.8864ZM318.521 52.1364C317.93 52.1364 317.412 51.9957 316.966 51.7145C316.522 51.4332 316.176 51.0398 315.926 50.5341C315.679 50.0284 315.555 49.4375 315.555 48.7614C315.555 48.0795 315.679 47.4844 315.926 46.9759C316.176 46.4673 316.522 46.0724 316.966 45.7912C317.412 45.5099 317.93 45.3693 318.521 45.3693C319.112 45.3693 319.629 45.5099 320.072 45.7912C320.518 46.0724 320.865 46.4673 321.112 46.9759C321.362 47.4844 321.487 48.0795 321.487 48.7614C321.487 49.4375 321.362 50.0284 321.112 50.5341C320.865 51.0398 320.518 51.4332 320.072 51.7145C319.629 51.9957 319.112 52.1364 318.521 52.1364ZM318.521 51.233C318.97 51.233 319.339 51.1179 319.629 50.8878C319.919 50.6577 320.133 50.3551 320.272 49.9801C320.412 49.6051 320.481 49.1989 320.481 48.7614C320.481 48.3239 320.412 47.9162 320.272 47.5384C320.133 47.1605 319.919 46.8551 319.629 46.6222C319.339 46.3892 318.97 46.2727 318.521 46.2727C318.072 46.2727 317.703 46.3892 317.413 46.6222C317.123 46.8551 316.909 47.1605 316.77 47.5384C316.63 47.9162 316.561 48.3239 316.561 48.7614C316.561 49.1989 316.63 49.6051 316.77 49.9801C316.909 50.3551 317.123 50.6577 317.413 50.8878C317.703 51.1179 318.072 51.233 318.521 51.233ZM323.022 52V45.4545H323.994V46.4432H324.062C324.181 46.1193 324.397 45.8565 324.71 45.6548C325.022 45.4531 325.374 45.3523 325.766 45.3523C325.84 45.3523 325.933 45.3537 326.043 45.3565C326.154 45.3594 326.238 45.3636 326.295 45.3693V46.392C326.261 46.3835 326.183 46.3707 326.06 46.3537C325.941 46.3338 325.815 46.3239 325.681 46.3239C325.363 46.3239 325.079 46.3906 324.829 46.5241C324.582 46.6548 324.386 46.8366 324.241 47.0696C324.099 47.2997 324.028 47.5625 324.028 47.858V52H323.022ZM329.413 52.1534C328.998 52.1534 328.622 52.0753 328.284 51.919C327.946 51.7599 327.677 51.5312 327.478 51.233C327.279 50.9318 327.18 50.5682 327.18 50.142C327.18 49.767 327.254 49.4631 327.402 49.2301C327.549 48.9943 327.747 48.8097 327.994 48.6761C328.241 48.5426 328.514 48.4432 328.812 48.3778C329.113 48.3097 329.416 48.2557 329.72 48.2159C330.118 48.1648 330.44 48.1264 330.687 48.1009C330.937 48.0724 331.119 48.0256 331.233 47.9602C331.349 47.8949 331.407 47.7812 331.407 47.6193V47.5852C331.407 47.1648 331.292 46.8381 331.062 46.6051C330.835 46.3722 330.49 46.2557 330.027 46.2557C329.547 46.2557 329.17 46.3608 328.897 46.571C328.625 46.7812 328.433 47.0057 328.322 47.2443L327.368 46.9034C327.538 46.5057 327.765 46.196 328.049 45.9744C328.336 45.75 328.649 45.5937 328.987 45.5057C329.328 45.4148 329.663 45.3693 329.993 45.3693C330.203 45.3693 330.444 45.3949 330.717 45.446C330.993 45.4943 331.258 45.5952 331.514 45.7486C331.772 45.902 331.987 46.1335 332.157 46.4432C332.328 46.7528 332.413 47.1676 332.413 47.6875V52H331.407V51.1136H331.356C331.288 51.2557 331.174 51.4077 331.015 51.5696C330.856 51.7315 330.645 51.8693 330.38 51.983C330.116 52.0966 329.794 52.1534 329.413 52.1534ZM329.566 51.25C329.964 51.25 330.299 51.1719 330.572 51.0156C330.848 50.8594 331.055 50.6577 331.194 50.4105C331.336 50.1634 331.407 49.9034 331.407 49.6307V48.7102C331.365 48.7614 331.271 48.8082 331.126 48.8509C330.984 48.8906 330.819 48.9261 330.632 48.9574C330.447 48.9858 330.267 49.0114 330.091 49.0341C329.917 49.054 329.777 49.071 329.669 49.0852C329.407 49.1193 329.163 49.1747 328.936 49.2514C328.711 49.3253 328.529 49.4375 328.39 49.5881C328.254 49.7358 328.186 49.9375 328.186 50.1932C328.186 50.5426 328.315 50.8068 328.574 50.9858C328.835 51.1619 329.166 51.25 329.566 51.25ZM336.891 54.5909C336.405 54.5909 335.987 54.5284 335.638 54.4034C335.288 54.2812 334.997 54.1193 334.764 53.9176C334.534 53.7188 334.351 53.5057 334.214 53.2784L335.016 52.7159C335.107 52.8352 335.222 52.9716 335.361 53.125C335.5 53.2812 335.69 53.4162 335.932 53.5298C336.176 53.6463 336.496 53.7045 336.891 53.7045C337.419 53.7045 337.855 53.5767 338.199 53.321C338.543 53.0653 338.714 52.6648 338.714 52.1193V50.7898H338.629C338.555 50.9091 338.45 51.0568 338.314 51.233C338.18 51.4062 337.987 51.5611 337.734 51.6974C337.484 51.831 337.146 51.8977 336.72 51.8977C336.192 51.8977 335.717 51.7727 335.297 51.5227C334.879 51.2727 334.548 50.9091 334.304 50.4318C334.063 49.9545 333.942 49.375 333.942 48.6932C333.942 48.0227 334.06 47.4389 334.295 46.9418C334.531 46.4418 334.859 46.0554 335.28 45.7827C335.7 45.5071 336.186 45.3693 336.737 45.3693C337.163 45.3693 337.501 45.4403 337.751 45.5824C338.004 45.7216 338.197 45.8807 338.331 46.0597C338.467 46.2358 338.572 46.3807 338.646 46.4943H338.749V45.4545H339.72V52.1875C339.72 52.75 339.592 53.2074 339.337 53.5597C339.084 53.9148 338.743 54.1747 338.314 54.3395C337.888 54.5071 337.413 54.5909 336.891 54.5909ZM336.857 50.9943C337.26 50.9943 337.601 50.902 337.879 50.7173C338.158 50.5327 338.369 50.267 338.514 49.9205C338.659 49.5739 338.732 49.1591 338.732 48.6761C338.732 48.2045 338.661 47.7884 338.518 47.4276C338.376 47.0668 338.166 46.7841 337.888 46.5795C337.609 46.375 337.266 46.2727 336.857 46.2727C336.43 46.2727 336.075 46.3807 335.791 46.5966C335.51 46.8125 335.298 47.1023 335.156 47.4659C335.017 47.8295 334.947 48.233 334.947 48.6761C334.947 49.1307 335.018 49.5327 335.161 49.8821C335.305 50.2287 335.518 50.5014 335.8 50.7003C336.084 50.8963 336.436 50.9943 336.857 50.9943ZM344.305 52.1364C343.675 52.1364 343.131 51.9972 342.673 51.7188C342.219 51.4375 341.868 51.0455 341.621 50.5426C341.376 50.0369 341.254 49.4489 341.254 48.7784C341.254 48.108 341.376 47.517 341.621 47.0057C341.868 46.4915 342.212 46.0909 342.652 45.804C343.095 45.5142 343.612 45.3693 344.203 45.3693C344.544 45.3693 344.881 45.4261 345.213 45.5398C345.545 45.6534 345.848 45.8381 346.121 46.0938C346.393 46.3466 346.611 46.6818 346.773 47.0994C346.935 47.517 347.016 48.0312 347.016 48.642V49.0682H341.97V48.1989H345.993C345.993 47.8295 345.919 47.5 345.771 47.2102C345.626 46.9205 345.419 46.6918 345.149 46.5241C344.882 46.3565 344.567 46.2727 344.203 46.2727C343.803 46.2727 343.456 46.3722 343.163 46.571C342.874 46.767 342.651 47.0227 342.494 47.3381C342.338 47.6534 342.26 47.9915 342.26 48.3523V48.9318C342.26 49.4261 342.345 49.8452 342.516 50.1889C342.689 50.5298 342.929 50.7898 343.236 50.9688C343.543 51.1449 343.899 51.233 344.305 51.233C344.57 51.233 344.808 51.196 345.021 51.1222C345.237 51.0455 345.423 50.9318 345.58 50.7812C345.736 50.6278 345.857 50.4375 345.942 50.2102L346.913 50.483C346.811 50.8125 346.639 51.1023 346.398 51.3523C346.156 51.5994 345.858 51.7926 345.503 51.9318C345.148 52.0682 344.749 52.1364 344.305 52.1364ZM356.83 45.4545C356.778 45.0227 356.571 44.6875 356.207 44.4489C355.844 44.2102 355.398 44.0909 354.869 44.0909C354.483 44.0909 354.145 44.1534 353.855 44.2784C353.568 44.4034 353.344 44.5753 353.182 44.794C353.023 45.0128 352.943 45.2614 352.943 45.5398C352.943 45.7727 352.999 45.973 353.109 46.1406C353.223 46.3054 353.368 46.4432 353.544 46.554C353.72 46.6619 353.905 46.7514 354.098 46.8224C354.291 46.8906 354.469 46.946 354.631 46.9886L355.517 47.2273C355.744 47.2869 355.997 47.3693 356.276 47.4744C356.557 47.5795 356.825 47.723 357.081 47.9048C357.339 48.0838 357.553 48.3139 357.72 48.5952C357.888 48.8764 357.972 49.2216 357.972 49.6307C357.972 50.1023 357.848 50.5284 357.601 50.9091C357.357 51.2898 356.999 51.5923 356.527 51.8168C356.058 52.0412 355.489 52.1534 354.818 52.1534C354.193 52.1534 353.652 52.0526 353.195 51.8509C352.74 51.6491 352.382 51.3679 352.121 51.0071C351.862 50.6463 351.716 50.2273 351.682 49.75H352.773C352.801 50.0795 352.912 50.3523 353.105 50.5682C353.301 50.7812 353.548 50.9403 353.847 51.0455C354.148 51.1477 354.472 51.1989 354.818 51.1989C355.222 51.1989 355.584 51.1335 355.905 51.0028C356.226 50.8693 356.48 50.6847 356.668 50.4489C356.855 50.2102 356.949 49.9318 356.949 49.6136C356.949 49.3239 356.868 49.0881 356.706 48.9062C356.544 48.7244 356.331 48.5767 356.067 48.4631C355.803 48.3494 355.517 48.25 355.21 48.1648L354.136 47.858C353.455 47.6619 352.915 47.3821 352.517 47.0185C352.119 46.6548 351.92 46.179 351.92 45.5909C351.92 45.1023 352.053 44.6761 352.317 44.3125C352.584 43.946 352.942 43.6619 353.391 43.4602C353.842 43.2557 354.347 43.1534 354.903 43.1534C355.466 43.1534 355.966 43.2543 356.403 43.456C356.841 43.6548 357.188 43.9276 357.443 44.2741C357.702 44.6207 357.838 45.0142 357.852 45.4545H356.83ZM362.317 52.1364C361.686 52.1364 361.142 51.9972 360.685 51.7188C360.23 51.4375 359.88 51.0455 359.632 50.5426C359.388 50.0369 359.266 49.4489 359.266 48.7784C359.266 48.108 359.388 47.517 359.632 47.0057C359.88 46.4915 360.223 46.0909 360.664 45.804C361.107 45.5142 361.624 45.3693 362.215 45.3693C362.556 45.3693 362.892 45.4261 363.225 45.5398C363.557 45.6534 363.86 45.8381 364.132 46.0938C364.405 46.3466 364.623 46.6818 364.784 47.0994C364.946 47.517 365.027 48.0312 365.027 48.642V49.0682H359.982V48.1989H364.005C364.005 47.8295 363.931 47.5 363.783 47.2102C363.638 46.9205 363.431 46.6918 363.161 46.5241C362.894 46.3565 362.578 46.2727 362.215 46.2727C361.814 46.2727 361.468 46.3722 361.175 46.571C360.885 46.767 360.662 47.0227 360.506 47.3381C360.35 47.6534 360.272 47.9915 360.272 48.3523V48.9318C360.272 49.4261 360.357 49.8452 360.527 50.1889C360.701 50.5298 360.941 50.7898 361.248 50.9688C361.554 51.1449 361.911 51.233 362.317 51.233C362.581 51.233 362.82 51.196 363.033 51.1222C363.249 51.0455 363.435 50.9318 363.591 50.7812C363.748 50.6278 363.868 50.4375 363.953 50.2102L364.925 50.483C364.823 50.8125 364.651 51.1023 364.409 51.3523C364.168 51.5994 363.87 51.7926 363.515 51.9318C363.159 52.0682 362.76 52.1364 362.317 52.1364ZM366.557 52V45.4545H367.529V46.4432H367.597C367.716 46.1193 367.932 45.8565 368.245 45.6548C368.557 45.4531 368.909 45.3523 369.301 45.3523C369.375 45.3523 369.468 45.3537 369.578 45.3565C369.689 45.3594 369.773 45.3636 369.83 45.3693V46.392C369.796 46.3835 369.718 46.3707 369.596 46.3537C369.476 46.3338 369.35 46.3239 369.216 46.3239C368.898 46.3239 368.614 46.3906 368.364 46.5241C368.117 46.6548 367.921 46.8366 367.776 47.0696C367.634 47.2997 367.563 47.5625 367.563 47.858V52H366.557ZM376.574 45.4545L374.153 52H373.13L370.71 45.4545H371.801L373.608 50.6705H373.676L375.483 45.4545H376.574ZM380.411 52.1364C379.78 52.1364 379.236 51.9972 378.779 51.7188C378.324 51.4375 377.973 51.0455 377.726 50.5426C377.482 50.0369 377.36 49.4489 377.36 48.7784C377.36 48.108 377.482 47.517 377.726 47.0057C377.973 46.4915 378.317 46.0909 378.757 45.804C379.201 45.5142 379.718 45.3693 380.309 45.3693C380.65 45.3693 380.986 45.4261 381.319 45.5398C381.651 45.6534 381.953 45.8381 382.226 46.0938C382.499 46.3466 382.716 46.6818 382.878 47.0994C383.04 47.517 383.121 48.0312 383.121 48.642V49.0682H378.076V48.1989H382.098C382.098 47.8295 382.025 47.5 381.877 47.2102C381.732 46.9205 381.525 46.6918 381.255 46.5241C380.988 46.3565 380.672 46.2727 380.309 46.2727C379.908 46.2727 379.561 46.3722 379.269 46.571C378.979 46.767 378.756 47.0227 378.6 47.3381C378.444 47.6534 378.365 47.9915 378.365 48.3523V48.9318C378.365 49.4261 378.451 49.8452 378.621 50.1889C378.794 50.5298 379.034 50.7898 379.341 50.9688C379.648 51.1449 380.005 51.233 380.411 51.233C380.675 51.233 380.914 51.196 381.127 51.1222C381.343 51.0455 381.529 50.9318 381.685 50.7812C381.841 50.6278 381.962 50.4375 382.047 50.2102L383.019 50.483C382.917 50.8125 382.745 51.1023 382.503 51.3523C382.262 51.5994 381.963 51.7926 381.608 51.9318C381.253 52.0682 380.854 52.1364 380.411 52.1364ZM384.651 52V45.4545H385.623V46.4432H385.691C385.81 46.1193 386.026 45.8565 386.338 45.6548C386.651 45.4531 387.003 45.3523 387.395 45.3523C387.469 45.3523 387.561 45.3537 387.672 45.3565C387.783 45.3594 387.867 45.3636 387.924 45.3693V46.392C387.89 46.3835 387.811 46.3707 387.689 46.3537C387.57 46.3338 387.444 46.3239 387.31 46.3239C386.992 46.3239 386.708 46.3906 386.458 46.5241C386.211 46.6548 386.015 46.8366 385.87 47.0696C385.728 47.2997 385.657 47.5625 385.657 47.858V52H384.651Z" fill="black"/>
<rect x="39" y="64" width="135" height="31" fill="#D9D9D9"/>
<path d="M68.0795 78H67.0227C66.9602 77.696 66.8509 77.429 66.6946 77.1989C66.5412 76.9688 66.3537 76.7756 66.1321 76.6193C65.9134 76.4602 65.6705 76.3409 65.4034 76.2614C65.1364 76.1818 64.858 76.142 64.5682 76.142C64.0398 76.142 63.5611 76.2756 63.1321 76.5426C62.706 76.8097 62.3665 77.2031 62.1136 77.723C61.8636 78.2429 61.7386 78.8807 61.7386 79.6364C61.7386 80.392 61.8636 81.0298 62.1136 81.5497C62.3665 82.0696 62.706 82.4631 63.1321 82.7301C63.5611 82.9972 64.0398 83.1307 64.5682 83.1307C64.858 83.1307 65.1364 83.0909 65.4034 83.0114C65.6705 82.9318 65.9134 82.8139 66.1321 82.6577C66.3537 82.4986 66.5412 82.304 66.6946 82.0739C66.8509 81.8409 66.9602 81.5739 67.0227 81.2727H68.0795C68 81.7187 67.8551 82.1179 67.6449 82.4702C67.4347 82.8224 67.1733 83.1222 66.8608 83.3693C66.5483 83.6136 66.1974 83.7997 65.8082 83.9276C65.4219 84.0554 65.0085 84.1193 64.5682 84.1193C63.8239 84.1193 63.1619 83.9375 62.5824 83.5739C62.0028 83.2102 61.5469 82.6932 61.2145 82.0227C60.8821 81.3523 60.7159 80.5568 60.7159 79.6364C60.7159 78.7159 60.8821 77.9205 61.2145 77.25C61.5469 76.5795 62.0028 76.0625 62.5824 75.6989C63.1619 75.3352 63.8239 75.1534 64.5682 75.1534C65.0085 75.1534 65.4219 75.2173 65.8082 75.3452C66.1974 75.473 66.5483 75.6605 66.8608 75.9077C67.1733 76.152 67.4347 76.4503 67.6449 76.8026C67.8551 77.152 68 77.5511 68.0795 78ZM72.31 84.1364C71.7191 84.1364 71.2006 83.9957 70.7546 83.7145C70.3114 83.4332 69.9648 83.0398 69.7148 82.5341C69.4677 82.0284 69.3441 81.4375 69.3441 80.7614C69.3441 80.0795 69.4677 79.4844 69.7148 78.9759C69.9648 78.4673 70.3114 78.0724 70.7546 77.7912C71.2006 77.5099 71.7191 77.3693 72.31 77.3693C72.9009 77.3693 73.418 77.5099 73.8612 77.7912C74.3072 78.0724 74.6538 78.4673 74.9009 78.9759C75.1509 79.4844 75.2759 80.0795 75.2759 80.7614C75.2759 81.4375 75.1509 82.0284 74.9009 82.5341C74.6538 83.0398 74.3072 83.4332 73.8612 83.7145C73.418 83.9957 72.9009 84.1364 72.31 84.1364ZM72.31 83.233C72.7589 83.233 73.1282 83.1179 73.418 82.8878C73.7077 82.6577 73.9222 82.3551 74.0614 81.9801C74.2006 81.6051 74.2702 81.1989 74.2702 80.7614C74.2702 80.3239 74.2006 79.9162 74.0614 79.5384C73.9222 79.1605 73.7077 78.8551 73.418 78.6222C73.1282 78.3892 72.7589 78.2727 72.31 78.2727C71.8612 78.2727 71.4918 78.3892 71.2021 78.6222C70.9123 78.8551 70.6978 79.1605 70.5586 79.5384C70.4194 79.9162 70.3498 80.3239 70.3498 80.7614C70.3498 81.1989 70.4194 81.6051 70.5586 81.9801C70.6978 82.3551 70.9123 82.6577 71.2021 82.8878C71.4918 83.1179 71.8612 83.233 72.31 83.233ZM77.8168 80.0625V84H76.8111V77.4545H77.7827V78.4773H77.8679C78.0213 78.1449 78.2543 77.8778 78.5668 77.6761C78.8793 77.4716 79.2827 77.3693 79.777 77.3693C80.2202 77.3693 80.608 77.4602 80.9403 77.642C81.2727 77.821 81.5313 78.0938 81.7159 78.4602C81.9006 78.8239 81.9929 79.2841 81.9929 79.8409V84H80.9872V79.9091C80.9872 79.3949 80.8537 78.9943 80.5866 78.7074C80.3196 78.4176 79.9531 78.2727 79.4872 78.2727C79.1662 78.2727 78.8793 78.3423 78.6264 78.4815C78.3764 78.6207 78.179 78.8239 78.0341 79.0909C77.8892 79.358 77.8168 79.6818 77.8168 80.0625ZM84.8363 80.0625V84H83.8306V77.4545H84.8022V78.4773H84.8874C85.0408 78.1449 85.2738 77.8778 85.5863 77.6761C85.8988 77.4716 86.3022 77.3693 86.7965 77.3693C87.2397 77.3693 87.6275 77.4602 87.9599 77.642C88.2923 77.821 88.5508 78.0938 88.7354 78.4602C88.9201 78.8239 89.0124 79.2841 89.0124 79.8409V84H88.0067V79.9091C88.0067 79.3949 87.8732 78.9943 87.6062 78.7074C87.3391 78.4176 86.9727 78.2727 86.5067 78.2727C86.1857 78.2727 85.8988 78.3423 85.646 78.4815C85.396 78.6207 85.1985 78.8239 85.0536 79.0909C84.9087 79.358 84.8363 79.6818 84.8363 80.0625ZM93.5945 84.1364C92.9638 84.1364 92.4197 83.9972 91.9624 83.7188C91.5078 83.4375 91.157 83.0455 90.9098 82.5426C90.6655 82.0369 90.5433 81.4489 90.5433 80.7784C90.5433 80.108 90.6655 79.517 90.9098 79.0057C91.157 78.4915 91.5007 78.0909 91.9411 77.804C92.3842 77.5142 92.9013 77.3693 93.4922 77.3693C93.8331 77.3693 94.1697 77.4261 94.5021 77.5398C94.8345 77.6534 95.1371 77.8381 95.4098 78.0938C95.6825 78.3466 95.8999 78.6818 96.0618 79.0994C96.2237 79.517 96.3047 80.0312 96.3047 80.642V81.0682H91.2592V80.1989H95.282C95.282 79.8295 95.2081 79.5 95.0604 79.2102C94.9155 78.9205 94.7081 78.6918 94.4382 78.5241C94.1712 78.3565 93.8558 78.2727 93.4922 78.2727C93.0916 78.2727 92.745 78.3722 92.4524 78.571C92.1626 78.767 91.9396 79.0227 91.7834 79.3381C91.6271 79.6534 91.549 79.9915 91.549 80.3523V80.9318C91.549 81.4261 91.6342 81.8452 91.8047 82.1889C91.978 82.5298 92.218 82.7898 92.5249 82.9688C92.8317 83.1449 93.1882 83.233 93.5945 83.233C93.8587 83.233 94.0973 83.196 94.3104 83.1222C94.5263 83.0455 94.7124 82.9318 94.8686 82.7812C95.0249 82.6278 95.1456 82.4375 95.2308 82.2102L96.2024 82.483C96.1001 82.8125 95.9283 83.1023 95.6868 83.3523C95.4453 83.5994 95.147 83.7926 94.7919 83.9318C94.4368 84.0682 94.0376 84.1364 93.5945 84.1364ZM100.494 84.1364C99.88 84.1364 99.3516 83.9915 98.9084 83.7017C98.4652 83.4119 98.1243 83.0128 97.8857 82.5043C97.647 81.9957 97.5277 81.4148 97.5277 80.7614C97.5277 80.0966 97.6499 79.5099 97.8942 79.0014C98.1413 78.4901 98.4851 78.0909 98.9254 77.804C99.3686 77.5142 99.8857 77.3693 100.477 77.3693C100.937 77.3693 101.352 77.4545 101.721 77.625C102.09 77.7955 102.393 78.0341 102.629 78.3409C102.864 78.6477 103.011 79.0057 103.067 79.4148H102.062C101.985 79.1165 101.815 78.8523 101.55 78.6222C101.289 78.3892 100.937 78.2727 100.494 78.2727C100.102 78.2727 99.7578 78.375 99.4624 78.5795C99.1697 78.7812 98.9411 79.0668 98.7763 79.4361C98.6143 79.8026 98.5334 80.233 98.5334 80.7273C98.5334 81.233 98.6129 81.6733 98.772 82.0483C98.9339 82.4233 99.1612 82.7145 99.4538 82.9219C99.7493 83.1293 100.096 83.233 100.494 83.233C100.755 83.233 100.992 83.1875 101.205 83.0966C101.418 83.0057 101.599 82.875 101.746 82.7045C101.894 82.5341 101.999 82.3295 102.062 82.0909H103.067C103.011 82.4773 102.87 82.8253 102.646 83.1349C102.424 83.4418 102.13 83.6861 101.763 83.8679C101.4 84.0469 100.977 84.1364 100.494 84.1364ZM107.384 77.4545V78.3068H103.992V77.4545H107.384ZM104.981 75.8864H105.987V82.125C105.987 82.4091 106.028 82.6222 106.11 82.7642C106.195 82.9034 106.303 82.9972 106.434 83.0455C106.567 83.0909 106.708 83.1136 106.856 83.1136C106.967 83.1136 107.058 83.108 107.129 83.0966C107.2 83.0824 107.256 83.071 107.299 83.0625L107.504 83.9659C107.435 83.9915 107.34 84.017 107.218 84.0426C107.096 84.071 106.941 84.0852 106.754 84.0852C106.469 84.0852 106.191 84.0241 105.918 83.902C105.648 83.7798 105.424 83.5938 105.245 83.3438C105.069 83.0938 104.981 82.7784 104.981 82.3977V75.8864ZM112.92 75.2727L115.17 78.9034H115.238L117.488 75.2727H118.732L115.988 79.6364L118.732 84H117.488L115.238 80.4375H115.17L112.92 84H111.675L114.488 79.6364L111.675 75.2727H112.92ZM122.681 84.1193C122.181 84.1193 121.731 84.0199 121.331 83.821C120.93 83.6222 120.609 83.3494 120.368 83.0028C120.126 82.6562 119.994 82.2614 119.971 81.8182H120.994C121.034 82.2131 121.213 82.5398 121.531 82.7983C121.852 83.054 122.235 83.1818 122.681 83.1818C123.039 83.1818 123.358 83.098 123.636 82.9304C123.917 82.7628 124.137 82.5327 124.297 82.2401C124.458 81.9446 124.539 81.6108 124.539 81.2386C124.539 80.858 124.456 80.5185 124.288 80.2202C124.123 79.919 123.896 79.6818 123.606 79.5085C123.316 79.3352 122.985 79.2472 122.613 79.2443C122.346 79.2415 122.072 79.2827 121.791 79.3679C121.51 79.4503 121.278 79.5568 121.096 79.6875L120.108 79.5682L120.636 75.2727H125.17V76.2102H121.522L121.216 78.7841H121.267C121.446 78.642 121.67 78.5241 121.94 78.4304C122.21 78.3366 122.491 78.2898 122.784 78.2898C123.318 78.2898 123.794 78.4176 124.211 78.6733C124.632 78.9261 124.961 79.2727 125.2 79.7131C125.441 80.1534 125.562 80.6562 125.562 81.2216C125.562 81.7784 125.437 82.2756 125.187 82.7131C124.94 83.1477 124.599 83.4915 124.164 83.7443C123.73 83.9943 123.235 84.1193 122.681 84.1193ZM137.704 75.2727V84H136.681L131.925 77.1477H131.84V84H130.783V75.2727H131.806L136.579 82.142H136.664V75.2727H137.704ZM140.875 75.2727V84H139.819V75.2727H140.875ZM150.017 78H148.96C148.898 77.696 148.788 77.429 148.632 77.1989C148.479 76.9688 148.291 76.7756 148.07 76.6193C147.851 76.4602 147.608 76.3409 147.341 76.2614C147.074 76.1818 146.795 76.142 146.506 76.142C145.977 76.142 145.499 76.2756 145.07 76.5426C144.643 76.8097 144.304 77.2031 144.051 77.723C143.801 78.2429 143.676 78.8807 143.676 79.6364C143.676 80.392 143.801 81.0298 144.051 81.5497C144.304 82.0696 144.643 82.4631 145.07 82.7301C145.499 82.9972 145.977 83.1307 146.506 83.1307C146.795 83.1307 147.074 83.0909 147.341 83.0114C147.608 82.9318 147.851 82.8139 148.07 82.6577C148.291 82.4986 148.479 82.304 148.632 82.0739C148.788 81.8409 148.898 81.5739 148.96 81.2727H150.017C149.938 81.7187 149.793 82.1179 149.582 82.4702C149.372 82.8224 149.111 83.1222 148.798 83.3693C148.486 83.6136 148.135 83.7997 147.746 83.9276C147.359 84.0554 146.946 84.1193 146.506 84.1193C145.761 84.1193 145.099 83.9375 144.52 83.5739C143.94 83.2102 143.484 82.6932 143.152 82.0227C142.82 81.3523 142.653 80.5568 142.653 79.6364C142.653 78.7159 142.82 77.9205 143.152 77.25C143.484 76.5795 143.94 76.0625 144.52 75.6989C145.099 75.3352 145.761 75.1534 146.506 75.1534C146.946 75.1534 147.359 75.2173 147.746 75.3452C148.135 75.473 148.486 75.6605 148.798 75.9077C149.111 76.152 149.372 76.4503 149.582 76.8026C149.793 77.152 149.938 77.5511 150.017 78Z" fill="black"/>
<rect x="280" y="65" width="135" height="31" fill="#D9D9D9"/>
<path d="M309.08 79H308.023C307.96 78.696 307.851 78.429 307.695 78.1989C307.541 77.9688 307.354 77.7756 307.132 77.6193C306.913 77.4602 306.67 77.3409 306.403 77.2614C306.136 77.1818 305.858 77.142 305.568 77.142C305.04 77.142 304.561 77.2756 304.132 77.5426C303.706 77.8097 303.366 78.2031 303.114 78.723C302.864 79.2429 302.739 79.8807 302.739 80.6364C302.739 81.392 302.864 82.0298 303.114 82.5497C303.366 83.0696 303.706 83.4631 304.132 83.7301C304.561 83.9972 305.04 84.1307 305.568 84.1307C305.858 84.1307 306.136 84.0909 306.403 84.0114C306.67 83.9318 306.913 83.8139 307.132 83.6577C307.354 83.4986 307.541 83.304 307.695 83.0739C307.851 82.8409 307.96 82.5739 308.023 82.2727H309.08C309 82.7187 308.855 83.1179 308.645 83.4702C308.435 83.8224 308.173 84.1222 307.861 84.3693C307.548 84.6136 307.197 84.7997 306.808 84.9276C306.422 85.0554 306.009 85.1193 305.568 85.1193C304.824 85.1193 304.162 84.9375 303.582 84.5739C303.003 84.2102 302.547 83.6932 302.214 83.0227C301.882 82.3523 301.716 81.5568 301.716 80.6364C301.716 79.7159 301.882 78.9205 302.214 78.25C302.547 77.5795 303.003 77.0625 303.582 76.6989C304.162 76.3352 304.824 76.1534 305.568 76.1534C306.009 76.1534 306.422 76.2173 306.808 76.3452C307.197 76.473 307.548 76.6605 307.861 76.9077C308.173 77.152 308.435 77.4503 308.645 77.8026C308.855 78.152 309 78.5511 309.08 79ZM313.31 85.1364C312.719 85.1364 312.201 84.9957 311.755 84.7145C311.311 84.4332 310.965 84.0398 310.715 83.5341C310.468 83.0284 310.344 82.4375 310.344 81.7614C310.344 81.0795 310.468 80.4844 310.715 79.9759C310.965 79.4673 311.311 79.0724 311.755 78.7912C312.201 78.5099 312.719 78.3693 313.31 78.3693C313.901 78.3693 314.418 78.5099 314.861 78.7912C315.307 79.0724 315.654 79.4673 315.901 79.9759C316.151 80.4844 316.276 81.0795 316.276 81.7614C316.276 82.4375 316.151 83.0284 315.901 83.5341C315.654 84.0398 315.307 84.4332 314.861 84.7145C314.418 84.9957 313.901 85.1364 313.31 85.1364ZM313.31 84.233C313.759 84.233 314.128 84.1179 314.418 83.8878C314.708 83.6577 314.922 83.3551 315.061 82.9801C315.201 82.6051 315.27 82.1989 315.27 81.7614C315.27 81.3239 315.201 80.9162 315.061 80.5384C314.922 80.1605 314.708 79.8551 314.418 79.6222C314.128 79.3892 313.759 79.2727 313.31 79.2727C312.861 79.2727 312.492 79.3892 312.202 79.6222C311.912 79.8551 311.698 80.1605 311.559 80.5384C311.419 80.9162 311.35 81.3239 311.35 81.7614C311.35 82.1989 311.419 82.6051 311.559 82.9801C311.698 83.3551 311.912 83.6577 312.202 83.8878C312.492 84.1179 312.861 84.233 313.31 84.233ZM318.817 81.0625V85H317.811V78.4545H318.783V79.4773H318.868C319.021 79.1449 319.254 78.8778 319.567 78.6761C319.879 78.4716 320.283 78.3693 320.777 78.3693C321.22 78.3693 321.608 78.4602 321.94 78.642C322.273 78.821 322.531 79.0938 322.716 79.4602C322.901 79.8239 322.993 80.2841 322.993 80.8409V85H321.987V80.9091C321.987 80.3949 321.854 79.9943 321.587 79.7074C321.32 79.4176 320.953 79.2727 320.487 79.2727C320.166 79.2727 319.879 79.3423 319.626 79.4815C319.376 79.6207 319.179 79.8239 319.034 80.0909C318.889 80.358 318.817 80.6818 318.817 81.0625ZM325.836 81.0625V85H324.831V78.4545H325.802V79.4773H325.887C326.041 79.1449 326.274 78.8778 326.586 78.6761C326.899 78.4716 327.302 78.3693 327.797 78.3693C328.24 78.3693 328.627 78.4602 328.96 78.642C329.292 78.821 329.551 79.0938 329.735 79.4602C329.92 79.8239 330.012 80.2841 330.012 80.8409V85H329.007V80.9091C329.007 80.3949 328.873 79.9943 328.606 79.7074C328.339 79.4176 327.973 79.2727 327.507 79.2727C327.186 79.2727 326.899 79.3423 326.646 79.4815C326.396 79.6207 326.199 79.8239 326.054 80.0909C325.909 80.358 325.836 80.6818 325.836 81.0625ZM334.594 85.1364C333.964 85.1364 333.42 84.9972 332.962 84.7188C332.508 84.4375 332.157 84.0455 331.91 83.5426C331.665 83.0369 331.543 82.4489 331.543 81.7784C331.543 81.108 331.665 80.517 331.91 80.0057C332.157 79.4915 332.501 79.0909 332.941 78.804C333.384 78.5142 333.901 78.3693 334.492 78.3693C334.833 78.3693 335.17 78.4261 335.502 78.5398C335.835 78.6534 336.137 78.8381 336.41 79.0938C336.683 79.3466 336.9 79.6818 337.062 80.0994C337.224 80.517 337.305 81.0312 337.305 81.642V82.0682H332.259V81.1989H336.282C336.282 80.8295 336.208 80.5 336.06 80.2102C335.915 79.9205 335.708 79.6918 335.438 79.5241C335.171 79.3565 334.856 79.2727 334.492 79.2727C334.092 79.2727 333.745 79.3722 333.452 79.571C333.163 79.767 332.94 80.0227 332.783 80.3381C332.627 80.6534 332.549 80.9915 332.549 81.3523V81.9318C332.549 82.4261 332.634 82.8452 332.805 83.1889C332.978 83.5298 333.218 83.7898 333.525 83.9688C333.832 84.1449 334.188 84.233 334.594 84.233C334.859 84.233 335.097 84.196 335.31 84.1222C335.526 84.0455 335.712 83.9318 335.869 83.7812C336.025 83.6278 336.146 83.4375 336.231 83.2102L337.202 83.483C337.1 83.8125 336.928 84.1023 336.687 84.3523C336.445 84.5994 336.147 84.7926 335.792 84.9318C335.437 85.0682 335.038 85.1364 334.594 85.1364ZM341.494 85.1364C340.88 85.1364 340.352 84.9915 339.908 84.7017C339.465 84.4119 339.124 84.0128 338.886 83.5043C338.647 82.9957 338.528 82.4148 338.528 81.7614C338.528 81.0966 338.65 80.5099 338.894 80.0014C339.141 79.4901 339.485 79.0909 339.925 78.804C340.369 78.5142 340.886 78.3693 341.477 78.3693C341.937 78.3693 342.352 78.4545 342.721 78.625C343.09 78.7955 343.393 79.0341 343.629 79.3409C343.864 79.6477 344.011 80.0057 344.067 80.4148H343.062C342.985 80.1165 342.815 79.8523 342.55 79.6222C342.289 79.3892 341.937 79.2727 341.494 79.2727C341.102 79.2727 340.758 79.375 340.462 79.5795C340.17 79.7812 339.941 80.0668 339.776 80.4361C339.614 80.8026 339.533 81.233 339.533 81.7273C339.533 82.233 339.613 82.6733 339.772 83.0483C339.934 83.4233 340.161 83.7145 340.454 83.9219C340.749 84.1293 341.096 84.233 341.494 84.233C341.755 84.233 341.992 84.1875 342.205 84.0966C342.418 84.0057 342.599 83.875 342.746 83.7045C342.894 83.5341 342.999 83.3295 343.062 83.0909H344.067C344.011 83.4773 343.87 83.8253 343.646 84.1349C343.424 84.4418 343.13 84.6861 342.763 84.8679C342.4 85.0469 341.977 85.1364 341.494 85.1364ZM348.384 78.4545V79.3068H344.992V78.4545H348.384ZM345.981 76.8864H346.987V83.125C346.987 83.4091 347.028 83.6222 347.11 83.7642C347.195 83.9034 347.303 83.9972 347.434 84.0455C347.567 84.0909 347.708 84.1136 347.856 84.1136C347.967 84.1136 348.058 84.108 348.129 84.0966C348.2 84.0824 348.256 84.071 348.299 84.0625L348.504 84.9659C348.435 84.9915 348.34 85.017 348.218 85.0426C348.096 85.071 347.941 85.0852 347.754 85.0852C347.469 85.0852 347.191 85.0241 346.918 84.902C346.648 84.7798 346.424 84.5938 346.245 84.3438C346.069 84.0938 345.981 83.7784 345.981 83.3977V76.8864ZM353.92 76.2727L356.17 79.9034H356.238L358.488 76.2727H359.732L356.988 80.6364L359.732 85H358.488L356.238 81.4375H356.17L353.92 85H352.675L355.488 80.6364L352.675 76.2727H353.92ZM363.681 85.1193C363.181 85.1193 362.731 85.0199 362.331 84.821C361.93 84.6222 361.609 84.3494 361.368 84.0028C361.126 83.6562 360.994 83.2614 360.971 82.8182H361.994C362.034 83.2131 362.213 83.5398 362.531 83.7983C362.852 84.054 363.235 84.1818 363.681 84.1818C364.039 84.1818 364.358 84.098 364.636 83.9304C364.917 83.7628 365.137 83.5327 365.297 83.2401C365.458 82.9446 365.539 82.6108 365.539 82.2386C365.539 81.858 365.456 81.5185 365.288 81.2202C365.123 80.919 364.896 80.6818 364.606 80.5085C364.316 80.3352 363.985 80.2472 363.613 80.2443C363.346 80.2415 363.072 80.2827 362.791 80.3679C362.51 80.4503 362.278 80.5568 362.096 80.6875L361.108 80.5682L361.636 76.2727H366.17V77.2102H362.522L362.216 79.7841H362.267C362.446 79.642 362.67 79.5241 362.94 79.4304C363.21 79.3366 363.491 79.2898 363.784 79.2898C364.318 79.2898 364.794 79.4176 365.211 79.6733C365.632 79.9261 365.961 80.2727 366.2 80.7131C366.441 81.1534 366.562 81.6562 366.562 82.2216C366.562 82.7784 366.437 83.2756 366.187 83.7131C365.94 84.1477 365.599 84.4915 365.164 84.7443C364.73 84.9943 364.235 85.1193 363.681 85.1193ZM378.704 76.2727V85H377.681L372.925 78.1477H372.84V85H371.783V76.2727H372.806L377.579 83.142H377.664V76.2727H378.704ZM381.875 76.2727V85H380.819V76.2727H381.875ZM391.017 79H389.96C389.898 78.696 389.788 78.429 389.632 78.1989C389.479 77.9688 389.291 77.7756 389.07 77.6193C388.851 77.4602 388.608 77.3409 388.341 77.2614C388.074 77.1818 387.795 77.142 387.506 77.142C386.977 77.142 386.499 77.2756 386.07 77.5426C385.643 77.8097 385.304 78.2031 385.051 78.723C384.801 79.2429 384.676 79.8807 384.676 80.6364C384.676 81.392 384.801 82.0298 385.051 82.5497C385.304 83.0696 385.643 83.4631 386.07 83.7301C386.499 83.9972 386.977 84.1307 387.506 84.1307C387.795 84.1307 388.074 84.0909 388.341 84.0114C388.608 83.9318 388.851 83.8139 389.07 83.6577C389.291 83.4986 389.479 83.304 389.632 83.0739C389.788 82.8409 389.898 82.5739 389.96 82.2727H391.017C390.938 82.7187 390.793 83.1179 390.582 83.4702C390.372 83.8224 390.111 84.1222 389.798 84.3693C389.486 84.6136 389.135 84.7997 388.746 84.9276C388.359 85.0554 387.946 85.1193 387.506 85.1193C386.761 85.1193 386.099 84.9375 385.52 84.5739C384.94 84.2102 384.484 83.6932 384.152 83.0227C383.82 82.3523 383.653 81.5568 383.653 80.6364C383.653 79.7159 383.82 78.9205 384.152 78.25C384.484 77.5795 384.94 77.0625 385.52 76.6989C386.099 76.3352 386.761 76.1534 387.506 76.1534C387.946 76.1534 388.359 76.2173 388.746 76.3452C389.135 76.473 389.486 76.6605 389.798 76.9077C390.111 77.152 390.372 77.4503 390.582 77.8026C390.793 78.152 390.938 78.5511 391.017 79Z" fill="black"/>
<path d="M162.889 140H160.195V131.273H163.008C163.855 131.273 164.579 131.447 165.181 131.797C165.784 132.143 166.245 132.642 166.566 133.293C166.887 133.94 167.048 134.716 167.048 135.619C167.048 136.528 166.886 137.311 166.562 137.967C166.238 138.621 165.767 139.124 165.147 139.476C164.528 139.825 163.775 140 162.889 140ZM161.252 139.062H162.82C163.542 139.062 164.14 138.923 164.615 138.645C165.089 138.366 165.443 137.97 165.676 137.456C165.909 136.942 166.025 136.33 166.025 135.619C166.025 134.915 165.91 134.308 165.68 133.8C165.45 133.288 165.106 132.896 164.649 132.624C164.191 132.348 163.622 132.21 162.94 132.21H161.252V139.062ZM168.684 140V133.455H169.69V140H168.684ZM169.195 132.364C168.999 132.364 168.83 132.297 168.688 132.163C168.549 132.03 168.48 131.869 168.48 131.682C168.48 131.494 168.549 131.334 168.688 131.2C168.83 131.067 168.999 131 169.195 131C169.392 131 169.559 131.067 169.698 131.2C169.84 131.334 169.911 131.494 169.911 131.682C169.911 131.869 169.84 132.03 169.698 132.163C169.559 132.297 169.392 132.364 169.195 132.364ZM171.532 140V133.455H172.503V134.443H172.572C172.691 134.119 172.907 133.857 173.219 133.655C173.532 133.453 173.884 133.352 174.276 133.352C174.35 133.352 174.442 133.354 174.553 133.357C174.664 133.359 174.748 133.364 174.805 133.369V134.392C174.77 134.384 174.692 134.371 174.57 134.354C174.451 134.334 174.324 134.324 174.191 134.324C173.873 134.324 173.589 134.391 173.339 134.524C173.091 134.655 172.895 134.837 172.751 135.07C172.608 135.3 172.537 135.562 172.537 135.858V140H171.532ZM178.542 140.136C177.911 140.136 177.367 139.997 176.91 139.719C176.455 139.438 176.104 139.045 175.857 138.543C175.613 138.037 175.491 137.449 175.491 136.778C175.491 136.108 175.613 135.517 175.857 135.006C176.104 134.491 176.448 134.091 176.888 133.804C177.331 133.514 177.849 133.369 178.439 133.369C178.78 133.369 179.117 133.426 179.449 133.54C179.782 133.653 180.084 133.838 180.357 134.094C180.63 134.347 180.847 134.682 181.009 135.099C181.171 135.517 181.252 136.031 181.252 136.642V137.068H176.206V136.199H180.229C180.229 135.83 180.155 135.5 180.008 135.21C179.863 134.92 179.655 134.692 179.385 134.524C179.118 134.357 178.803 134.273 178.439 134.273C178.039 134.273 177.692 134.372 177.4 134.571C177.11 134.767 176.887 135.023 176.731 135.338C176.574 135.653 176.496 135.991 176.496 136.352V136.932C176.496 137.426 176.581 137.845 176.752 138.189C176.925 138.53 177.165 138.79 177.472 138.969C177.779 139.145 178.135 139.233 178.542 139.233C178.806 139.233 179.045 139.196 179.258 139.122C179.474 139.045 179.66 138.932 179.816 138.781C179.972 138.628 180.093 138.437 180.178 138.21L181.15 138.483C181.047 138.812 180.876 139.102 180.634 139.352C180.393 139.599 180.094 139.793 179.739 139.932C179.384 140.068 178.985 140.136 178.542 140.136ZM185.441 140.136C184.827 140.136 184.299 139.991 183.856 139.702C183.412 139.412 183.072 139.013 182.833 138.504C182.594 137.996 182.475 137.415 182.475 136.761C182.475 136.097 182.597 135.51 182.841 135.001C183.089 134.49 183.432 134.091 183.873 133.804C184.316 133.514 184.833 133.369 185.424 133.369C185.884 133.369 186.299 133.455 186.668 133.625C187.037 133.795 187.34 134.034 187.576 134.341C187.812 134.648 187.958 135.006 188.015 135.415H187.009C186.932 135.116 186.762 134.852 186.498 134.622C186.236 134.389 185.884 134.273 185.441 134.273C185.049 134.273 184.705 134.375 184.41 134.58C184.117 134.781 183.888 135.067 183.724 135.436C183.562 135.803 183.481 136.233 183.481 136.727C183.481 137.233 183.56 137.673 183.719 138.048C183.881 138.423 184.108 138.714 184.401 138.922C184.697 139.129 185.043 139.233 185.441 139.233C185.702 139.233 185.939 139.188 186.153 139.097C186.366 139.006 186.546 138.875 186.694 138.705C186.841 138.534 186.947 138.33 187.009 138.091H188.015C187.958 138.477 187.817 138.825 187.593 139.135C187.371 139.442 187.077 139.686 186.711 139.868C186.347 140.047 185.924 140.136 185.441 140.136ZM192.331 133.455V134.307H188.939V133.455H192.331ZM189.928 131.886H190.934V138.125C190.934 138.409 190.975 138.622 191.057 138.764C191.143 138.903 191.251 138.997 191.381 139.045C191.515 139.091 191.655 139.114 191.803 139.114C191.914 139.114 192.005 139.108 192.076 139.097C192.147 139.082 192.204 139.071 192.246 139.062L192.451 139.966C192.383 139.991 192.287 140.017 192.165 140.043C192.043 140.071 191.888 140.085 191.701 140.085C191.417 140.085 191.138 140.024 190.866 139.902C190.596 139.78 190.371 139.594 190.192 139.344C190.016 139.094 189.928 138.778 189.928 138.398V131.886ZM197.714 140H196.606L199.81 131.273H200.901L204.106 140H202.998L200.39 132.653H200.322L197.714 140ZM198.123 136.591H202.589V137.528H198.123V136.591ZM207.765 133.455V134.307H204.373V133.455H207.765ZM205.362 131.886H206.367V138.125C206.367 138.409 206.409 138.622 206.491 138.764C206.576 138.903 206.684 138.997 206.815 139.045C206.948 139.091 207.089 139.114 207.237 139.114C207.347 139.114 207.438 139.108 207.509 139.097C207.58 139.082 207.637 139.071 207.68 139.062L207.884 139.966C207.816 139.991 207.721 140.017 207.599 140.043C207.477 140.071 207.322 140.085 207.134 140.085C206.85 140.085 206.572 140.024 206.299 139.902C206.029 139.78 205.805 139.594 205.626 139.344C205.45 139.094 205.362 138.778 205.362 138.398V131.886ZM212.124 133.455V134.307H208.732V133.455H212.124ZM209.721 131.886H210.727V138.125C210.727 138.409 210.768 138.622 210.85 138.764C210.936 138.903 211.044 138.997 211.174 139.045C211.308 139.091 211.448 139.114 211.596 139.114C211.707 139.114 211.798 139.108 211.869 139.097C211.94 139.082 211.997 139.071 212.039 139.062L212.244 139.966C212.176 139.991 212.08 140.017 211.958 140.043C211.836 140.071 211.681 140.085 211.494 140.085C211.21 140.085 210.931 140.024 210.659 139.902C210.389 139.78 210.164 139.594 209.985 139.344C209.809 139.094 209.721 138.778 209.721 138.398V131.886ZM215.563 140.153C215.149 140.153 214.772 140.075 214.434 139.919C214.096 139.76 213.828 139.531 213.629 139.233C213.43 138.932 213.33 138.568 213.33 138.142C213.33 137.767 213.404 137.463 213.552 137.23C213.7 136.994 213.897 136.81 214.144 136.676C214.392 136.543 214.664 136.443 214.963 136.378C215.264 136.31 215.566 136.256 215.87 136.216C216.268 136.165 216.59 136.126 216.838 136.101C217.088 136.072 217.269 136.026 217.383 135.96C217.499 135.895 217.558 135.781 217.558 135.619V135.585C217.558 135.165 217.443 134.838 217.213 134.605C216.985 134.372 216.64 134.256 216.177 134.256C215.697 134.256 215.32 134.361 215.048 134.571C214.775 134.781 214.583 135.006 214.472 135.244L213.518 134.903C213.688 134.506 213.916 134.196 214.2 133.974C214.487 133.75 214.799 133.594 215.137 133.506C215.478 133.415 215.813 133.369 216.143 133.369C216.353 133.369 216.595 133.395 216.867 133.446C217.143 133.494 217.409 133.595 217.664 133.749C217.923 133.902 218.137 134.134 218.308 134.443C218.478 134.753 218.563 135.168 218.563 135.688V140H217.558V139.114H217.507C217.438 139.256 217.325 139.408 217.166 139.57C217.007 139.732 216.795 139.869 216.531 139.983C216.267 140.097 215.944 140.153 215.563 140.153ZM215.717 139.25C216.115 139.25 216.45 139.172 216.722 139.016C216.998 138.859 217.205 138.658 217.345 138.411C217.487 138.163 217.558 137.903 217.558 137.631V136.71C217.515 136.761 217.421 136.808 217.276 136.851C217.134 136.891 216.97 136.926 216.782 136.957C216.597 136.986 216.417 137.011 216.241 137.034C216.068 137.054 215.927 137.071 215.819 137.085C215.558 137.119 215.313 137.175 215.086 137.251C214.862 137.325 214.68 137.437 214.541 137.588C214.404 137.736 214.336 137.937 214.336 138.193C214.336 138.543 214.465 138.807 214.724 138.986C214.985 139.162 215.316 139.25 215.717 139.25ZM223.058 140.136C222.444 140.136 221.916 139.991 221.473 139.702C221.03 139.412 220.689 139.013 220.45 138.504C220.211 137.996 220.092 137.415 220.092 136.761C220.092 136.097 220.214 135.51 220.459 135.001C220.706 134.49 221.05 134.091 221.49 133.804C221.933 133.514 222.45 133.369 223.041 133.369C223.501 133.369 223.916 133.455 224.285 133.625C224.655 133.795 224.957 134.034 225.193 134.341C225.429 134.648 225.575 135.006 225.632 135.415H224.626C224.55 135.116 224.379 134.852 224.115 134.622C223.854 134.389 223.501 134.273 223.058 134.273C222.666 134.273 222.322 134.375 222.027 134.58C221.734 134.781 221.506 135.067 221.341 135.436C221.179 135.803 221.098 136.233 221.098 136.727C221.098 137.233 221.177 137.673 221.336 138.048C221.498 138.423 221.726 138.714 222.018 138.922C222.314 139.129 222.66 139.233 223.058 139.233C223.319 139.233 223.557 139.188 223.77 139.097C223.983 139.006 224.163 138.875 224.311 138.705C224.459 138.534 224.564 138.33 224.626 138.091H225.632C225.575 138.477 225.434 138.825 225.21 139.135C224.988 139.442 224.694 139.686 224.328 139.868C223.964 140.047 223.541 140.136 223.058 140.136ZM228.108 136.062V140H227.102V131.273H228.108V134.477H228.193C228.346 134.139 228.577 133.871 228.883 133.672C229.193 133.47 229.605 133.369 230.119 133.369C230.565 133.369 230.956 133.459 231.291 133.638C231.626 133.814 231.886 134.085 232.071 134.452C232.258 134.815 232.352 135.278 232.352 135.841V140H231.346V135.909C231.346 135.389 231.211 134.987 230.942 134.703C230.675 134.416 230.304 134.273 229.829 134.273C229.5 134.273 229.204 134.342 228.943 134.482C228.684 134.621 228.48 134.824 228.329 135.091C228.182 135.358 228.108 135.682 228.108 136.062ZM236.936 140.136C236.306 140.136 235.762 139.997 235.304 139.719C234.85 139.438 234.499 139.045 234.252 138.543C234.007 138.037 233.885 137.449 233.885 136.778C233.885 136.108 234.007 135.517 234.252 135.006C234.499 134.491 234.843 134.091 235.283 133.804C235.726 133.514 236.243 133.369 236.834 133.369C237.175 133.369 237.512 133.426 237.844 133.54C238.176 133.653 238.479 133.838 238.752 134.094C239.024 134.347 239.242 134.682 239.404 135.099C239.566 135.517 239.646 136.031 239.646 136.642V137.068H234.601V136.199H238.624C238.624 135.83 238.55 135.5 238.402 135.21C238.257 134.92 238.05 134.692 237.78 134.524C237.513 134.357 237.198 134.273 236.834 134.273C236.433 134.273 236.087 134.372 235.794 134.571C235.504 134.767 235.281 135.023 235.125 135.338C234.969 135.653 234.891 135.991 234.891 136.352V136.932C234.891 137.426 234.976 137.845 235.146 138.189C235.32 138.53 235.56 138.79 235.867 138.969C236.173 139.145 236.53 139.233 236.936 139.233C237.2 139.233 237.439 139.196 237.652 139.122C237.868 139.045 238.054 138.932 238.21 138.781C238.367 138.628 238.487 138.437 238.573 138.21L239.544 138.483C239.442 138.812 239.27 139.102 239.029 139.352C238.787 139.599 238.489 139.793 238.134 139.932C237.779 140.068 237.379 140.136 236.936 140.136ZM243.648 140.136C243.102 140.136 242.621 139.999 242.203 139.723C241.786 139.445 241.459 139.053 241.223 138.547C240.987 138.038 240.869 137.438 240.869 136.744C240.869 136.057 240.987 135.46 241.223 134.955C241.459 134.449 241.787 134.058 242.208 133.783C242.628 133.507 243.114 133.369 243.665 133.369C244.091 133.369 244.428 133.44 244.675 133.582C244.925 133.722 245.115 133.881 245.246 134.06C245.379 134.236 245.483 134.381 245.557 134.494H245.642V131.273H246.648V140H245.676V138.994H245.557C245.483 139.114 245.378 139.264 245.242 139.446C245.105 139.625 244.911 139.786 244.658 139.928C244.405 140.067 244.068 140.136 243.648 140.136ZM243.784 139.233C244.188 139.233 244.529 139.128 244.807 138.918C245.085 138.705 245.297 138.411 245.442 138.036C245.587 137.658 245.659 137.222 245.659 136.727C245.659 136.239 245.588 135.811 245.446 135.445C245.304 135.075 245.094 134.788 244.816 134.584C244.537 134.376 244.193 134.273 243.784 134.273C243.358 134.273 243.003 134.382 242.719 134.601C242.438 134.817 242.226 135.111 242.084 135.483C241.945 135.852 241.875 136.267 241.875 136.727C241.875 137.193 241.946 137.616 242.088 137.997C242.233 138.375 242.446 138.676 242.727 138.901C243.012 139.122 243.364 139.233 243.784 139.233ZM259.164 134H258.107C258.044 133.696 257.935 133.429 257.779 133.199C257.625 132.969 257.438 132.776 257.216 132.619C256.997 132.46 256.754 132.341 256.487 132.261C256.22 132.182 255.942 132.142 255.652 132.142C255.124 132.142 254.645 132.276 254.216 132.543C253.79 132.81 253.45 133.203 253.198 133.723C252.948 134.243 252.823 134.881 252.823 135.636C252.823 136.392 252.948 137.03 253.198 137.55C253.45 138.07 253.79 138.463 254.216 138.73C254.645 138.997 255.124 139.131 255.652 139.131C255.942 139.131 256.22 139.091 256.487 139.011C256.754 138.932 256.997 138.814 257.216 138.658C257.438 138.499 257.625 138.304 257.779 138.074C257.935 137.841 258.044 137.574 258.107 137.273H259.164C259.084 137.719 258.939 138.118 258.729 138.47C258.519 138.822 258.257 139.122 257.945 139.369C257.632 139.614 257.281 139.8 256.892 139.928C256.506 140.055 256.093 140.119 255.652 140.119C254.908 140.119 254.246 139.938 253.666 139.574C253.087 139.21 252.631 138.693 252.298 138.023C251.966 137.352 251.8 136.557 251.8 135.636C251.8 134.716 251.966 133.92 252.298 133.25C252.631 132.58 253.087 132.062 253.666 131.699C254.246 131.335 254.908 131.153 255.652 131.153C256.093 131.153 256.506 131.217 256.892 131.345C257.281 131.473 257.632 131.661 257.945 131.908C258.257 132.152 258.519 132.45 258.729 132.803C258.939 133.152 259.084 133.551 259.164 134ZM262.661 140.153C262.246 140.153 261.87 140.075 261.532 139.919C261.194 139.76 260.925 139.531 260.726 139.233C260.528 138.932 260.428 138.568 260.428 138.142C260.428 137.767 260.502 137.463 260.65 137.23C260.797 136.994 260.995 136.81 261.242 136.676C261.489 136.543 261.762 136.443 262.06 136.378C262.361 136.31 262.664 136.256 262.968 136.216C263.366 136.165 263.688 136.126 263.935 136.101C264.185 136.072 264.367 136.026 264.481 135.96C264.597 135.895 264.655 135.781 264.655 135.619V135.585C264.655 135.165 264.54 134.838 264.31 134.605C264.083 134.372 263.738 134.256 263.275 134.256C262.795 134.256 262.418 134.361 262.145 134.571C261.873 134.781 261.681 135.006 261.57 135.244L260.616 134.903C260.786 134.506 261.013 134.196 261.297 133.974C261.584 133.75 261.897 133.594 262.235 133.506C262.576 133.415 262.911 133.369 263.241 133.369C263.451 133.369 263.692 133.395 263.965 133.446C264.241 133.494 264.506 133.595 264.762 133.749C265.02 133.902 265.235 134.134 265.405 134.443C265.576 134.753 265.661 135.168 265.661 135.688V140H264.655V139.114H264.604C264.536 139.256 264.422 139.408 264.263 139.57C264.104 139.732 263.893 139.869 263.628 139.983C263.364 140.097 263.042 140.153 262.661 140.153ZM262.814 139.25C263.212 139.25 263.547 139.172 263.82 139.016C264.096 138.859 264.303 138.658 264.442 138.411C264.584 138.163 264.655 137.903 264.655 137.631V136.71C264.613 136.761 264.519 136.808 264.374 136.851C264.232 136.891 264.067 136.926 263.88 136.957C263.695 136.986 263.515 137.011 263.339 137.034C263.165 137.054 263.025 137.071 262.917 137.085C262.655 137.119 262.411 137.175 262.184 137.251C261.959 137.325 261.778 137.437 261.638 137.588C261.502 137.736 261.434 137.937 261.434 138.193C261.434 138.543 261.563 138.807 261.822 138.986C262.083 139.162 262.414 139.25 262.814 139.25ZM267.633 140V131.273H268.639V134.494H268.724C268.798 134.381 268.9 134.236 269.031 134.06C269.164 133.881 269.355 133.722 269.602 133.582C269.852 133.44 270.19 133.369 270.616 133.369C271.167 133.369 271.653 133.507 272.073 133.783C272.494 134.058 272.822 134.449 273.058 134.955C273.294 135.46 273.411 136.057 273.411 136.744C273.411 137.438 273.294 138.038 273.058 138.547C272.822 139.053 272.495 139.445 272.078 139.723C271.66 139.999 271.178 140.136 270.633 140.136C270.213 140.136 269.876 140.067 269.623 139.928C269.37 139.786 269.176 139.625 269.039 139.446C268.903 139.264 268.798 139.114 268.724 138.994H268.605V140H267.633ZM268.622 136.727C268.622 137.222 268.694 137.658 268.839 138.036C268.984 138.411 269.195 138.705 269.474 138.918C269.752 139.128 270.093 139.233 270.497 139.233C270.917 139.233 271.268 139.122 271.549 138.901C271.833 138.676 272.046 138.375 272.188 137.997C272.333 137.616 272.406 137.193 272.406 136.727C272.406 136.267 272.335 135.852 272.193 135.483C272.053 135.111 271.842 134.817 271.558 134.601C271.276 134.382 270.923 134.273 270.497 134.273C270.088 134.273 269.744 134.376 269.465 134.584C269.187 134.788 268.977 135.075 268.835 135.445C268.693 135.811 268.622 136.239 268.622 136.727ZM275.955 131.273V140H274.95V131.273H275.955ZM280.542 140.136C279.911 140.136 279.367 139.997 278.91 139.719C278.455 139.438 278.104 139.045 277.857 138.543C277.613 138.037 277.491 137.449 277.491 136.778C277.491 136.108 277.613 135.517 277.857 135.006C278.104 134.491 278.448 134.091 278.888 133.804C279.331 133.514 279.849 133.369 280.439 133.369C280.78 133.369 281.117 133.426 281.449 133.54C281.782 133.653 282.084 133.838 282.357 134.094C282.63 134.347 282.847 134.682 283.009 135.099C283.171 135.517 283.252 136.031 283.252 136.642V137.068H278.206V136.199H282.229C282.229 135.83 282.155 135.5 282.008 135.21C281.863 134.92 281.655 134.692 281.385 134.524C281.118 134.357 280.803 134.273 280.439 134.273C280.039 134.273 279.692 134.372 279.4 134.571C279.11 134.767 278.887 135.023 278.731 135.338C278.574 135.653 278.496 135.991 278.496 136.352V136.932C278.496 137.426 278.581 137.845 278.752 138.189C278.925 138.53 279.165 138.79 279.472 138.969C279.779 139.145 280.135 139.233 280.542 139.233C280.806 139.233 281.045 139.196 281.258 139.122C281.474 139.045 281.66 138.932 281.816 138.781C281.972 138.628 282.093 138.437 282.178 138.21L283.15 138.483C283.047 138.812 282.876 139.102 282.634 139.352C282.393 139.599 282.094 139.793 281.739 139.932C281.384 140.068 280.985 140.136 280.542 140.136ZM175.077 150.636C175.077 149.562 175.216 148.575 175.495 147.675C175.776 146.771 176.177 145.94 176.697 145.182H177.583C177.378 145.463 177.187 145.81 177.008 146.222C176.831 146.631 176.677 147.081 176.543 147.572C176.41 148.061 176.305 148.567 176.228 149.089C176.154 149.612 176.117 150.128 176.117 150.636C176.117 151.312 176.182 151.999 176.313 152.695C176.444 153.391 176.62 154.037 176.841 154.634C177.063 155.23 177.31 155.716 177.583 156.091H176.697C176.177 155.332 175.776 154.503 175.495 153.602C175.216 152.699 175.077 151.71 175.077 150.636ZM186.124 146.273V155H185.101L180.345 148.148H180.26V155H179.203V146.273H180.226L184.999 153.142H185.084V146.273H186.124ZM190.846 155.136C190.216 155.136 189.672 154.997 189.214 154.719C188.76 154.438 188.409 154.045 188.162 153.543C187.917 153.037 187.795 152.449 187.795 151.778C187.795 151.108 187.917 150.517 188.162 150.006C188.409 149.491 188.753 149.091 189.193 148.804C189.636 148.514 190.153 148.369 190.744 148.369C191.085 148.369 191.422 148.426 191.754 148.54C192.086 148.653 192.389 148.838 192.662 149.094C192.934 149.347 193.152 149.682 193.314 150.099C193.476 150.517 193.557 151.031 193.557 151.642V152.068H188.511V151.199H192.534C192.534 150.83 192.46 150.5 192.312 150.21C192.167 149.92 191.96 149.692 191.69 149.524C191.423 149.357 191.108 149.273 190.744 149.273C190.344 149.273 189.997 149.372 189.704 149.571C189.415 149.767 189.192 150.023 189.035 150.338C188.879 150.653 188.801 150.991 188.801 151.352V151.932C188.801 152.426 188.886 152.845 189.057 153.189C189.23 153.53 189.47 153.79 189.777 153.969C190.084 154.145 190.44 154.233 190.846 154.233C191.111 154.233 191.349 154.196 191.562 154.122C191.778 154.045 191.964 153.932 192.121 153.781C192.277 153.628 192.398 153.437 192.483 153.21L193.454 153.483C193.352 153.812 193.18 154.102 192.939 154.352C192.697 154.599 192.399 154.793 192.044 154.932C191.689 155.068 191.29 155.136 190.846 155.136ZM197.933 148.455V149.307H194.541V148.455H197.933ZM195.53 146.886H196.535V153.125C196.535 153.409 196.577 153.622 196.659 153.764C196.744 153.903 196.852 153.997 196.983 154.045C197.116 154.091 197.257 154.114 197.405 154.114C197.515 154.114 197.606 154.108 197.677 154.097C197.748 154.082 197.805 154.071 197.848 154.062L198.052 154.966C197.984 154.991 197.889 155.017 197.767 155.043C197.645 155.071 197.49 155.085 197.302 155.085C197.018 155.085 196.74 155.024 196.467 154.902C196.197 154.78 195.973 154.594 195.794 154.344C195.618 154.094 195.53 153.778 195.53 153.398V146.886ZM200.929 155L198.934 148.455H199.991L201.406 153.466H201.474L202.872 148.455H203.946L205.327 153.449H205.395L206.809 148.455H207.866L205.872 155H204.883L203.452 149.972H203.349L201.917 155H200.929ZM211.632 155.136C211.041 155.136 210.523 154.996 210.077 154.714C209.634 154.433 209.287 154.04 209.037 153.534C208.79 153.028 208.666 152.437 208.666 151.761C208.666 151.08 208.79 150.484 209.037 149.976C209.287 149.467 209.634 149.072 210.077 148.791C210.523 148.51 211.041 148.369 211.632 148.369C212.223 148.369 212.74 148.51 213.183 148.791C213.629 149.072 213.976 149.467 214.223 149.976C214.473 150.484 214.598 151.08 214.598 151.761C214.598 152.437 214.473 153.028 214.223 153.534C213.976 154.04 213.629 154.433 213.183 154.714C212.74 154.996 212.223 155.136 211.632 155.136ZM211.632 154.233C212.081 154.233 212.45 154.118 212.74 153.888C213.03 153.658 213.244 153.355 213.384 152.98C213.523 152.605 213.593 152.199 213.593 151.761C213.593 151.324 213.523 150.916 213.384 150.538C213.244 150.161 213.03 149.855 212.74 149.622C212.45 149.389 212.081 149.273 211.632 149.273C211.183 149.273 210.814 149.389 210.524 149.622C210.235 149.855 210.02 150.161 209.881 150.538C209.742 150.916 209.672 151.324 209.672 151.761C209.672 152.199 209.742 152.605 209.881 152.98C210.02 153.355 210.235 153.658 210.524 153.888C210.814 154.118 211.183 154.233 211.632 154.233ZM216.133 155V148.455H217.105V149.443H217.173C217.292 149.119 217.508 148.857 217.821 148.655C218.133 148.453 218.486 148.352 218.878 148.352C218.952 148.352 219.044 148.354 219.155 148.357C219.265 148.359 219.349 148.364 219.406 148.369V149.392C219.372 149.384 219.294 149.371 219.172 149.354C219.052 149.334 218.926 149.324 218.792 149.324C218.474 149.324 218.19 149.391 217.94 149.524C217.693 149.655 217.497 149.837 217.352 150.07C217.21 150.3 217.139 150.562 217.139 150.858V155H216.133ZM221.536 152.614L221.519 151.369H221.723L224.587 148.455H225.831L222.78 151.54H222.695L221.536 152.614ZM220.598 155V146.273H221.604V155H220.598ZM224.757 155L222.2 151.761L222.916 151.062L226.036 155H224.757ZM230.637 155V146.273H235.87V147.21H231.694V150.159H235.478V151.097H231.694V155H230.637ZM239.47 155.153C239.055 155.153 238.678 155.075 238.34 154.919C238.002 154.76 237.734 154.531 237.535 154.233C237.336 153.932 237.237 153.568 237.237 153.142C237.237 152.767 237.311 152.463 237.458 152.23C237.606 151.994 237.803 151.81 238.051 151.676C238.298 151.543 238.57 151.443 238.869 151.378C239.17 151.31 239.472 151.256 239.776 151.216C240.174 151.165 240.497 151.126 240.744 151.101C240.994 151.072 241.176 151.026 241.289 150.96C241.406 150.895 241.464 150.781 241.464 150.619V150.585C241.464 150.165 241.349 149.838 241.119 149.605C240.892 149.372 240.546 149.256 240.083 149.256C239.603 149.256 239.227 149.361 238.954 149.571C238.681 149.781 238.49 150.006 238.379 150.244L237.424 149.903C237.595 149.506 237.822 149.196 238.106 148.974C238.393 148.75 238.705 148.594 239.044 148.506C239.384 148.415 239.72 148.369 240.049 148.369C240.259 148.369 240.501 148.395 240.774 148.446C241.049 148.494 241.315 148.595 241.57 148.749C241.829 148.902 242.044 149.134 242.214 149.443C242.384 149.753 242.47 150.168 242.47 150.688V155H241.464V154.114H241.413C241.345 154.256 241.231 154.408 241.072 154.57C240.913 154.732 240.701 154.869 240.437 154.983C240.173 155.097 239.85 155.153 239.47 155.153ZM239.623 154.25C240.021 154.25 240.356 154.172 240.629 154.016C240.904 153.859 241.112 153.658 241.251 153.411C241.393 153.163 241.464 152.903 241.464 152.631V151.71C241.421 151.761 241.328 151.808 241.183 151.851C241.041 151.891 240.876 151.926 240.688 151.957C240.504 151.986 240.323 152.011 240.147 152.034C239.974 152.054 239.833 152.071 239.725 152.085C239.464 152.119 239.22 152.175 238.992 152.251C238.768 152.325 238.586 152.437 238.447 152.588C238.311 152.736 238.242 152.937 238.242 153.193C238.242 153.543 238.372 153.807 238.63 153.986C238.892 154.162 239.222 154.25 239.623 154.25ZM244.442 155V146.273H245.447V149.494H245.532C245.606 149.381 245.709 149.236 245.839 149.06C245.973 148.881 246.163 148.722 246.41 148.582C246.66 148.44 246.998 148.369 247.425 148.369C247.976 148.369 248.461 148.507 248.882 148.783C249.302 149.058 249.631 149.449 249.866 149.955C250.102 150.46 250.22 151.057 250.22 151.744C250.22 152.438 250.102 153.038 249.866 153.547C249.631 154.053 249.304 154.445 248.886 154.723C248.469 154.999 247.987 155.136 247.442 155.136C247.021 155.136 246.684 155.067 246.432 154.928C246.179 154.786 245.984 154.625 245.848 154.446C245.711 154.264 245.606 154.114 245.532 153.994H245.413V155H244.442ZM245.43 151.727C245.43 152.222 245.503 152.658 245.648 153.036C245.792 153.411 246.004 153.705 246.282 153.918C246.561 154.128 246.902 154.233 247.305 154.233C247.726 154.233 248.077 154.122 248.358 153.901C248.642 153.676 248.855 153.375 248.997 152.997C249.142 152.616 249.214 152.193 249.214 151.727C249.214 151.267 249.143 150.852 249.001 150.483C248.862 150.111 248.65 149.817 248.366 149.601C248.085 149.382 247.731 149.273 247.305 149.273C246.896 149.273 246.552 149.376 246.274 149.584C245.996 149.788 245.785 150.075 245.643 150.445C245.501 150.811 245.43 151.239 245.43 151.727ZM251.758 155V148.455H252.73V149.443H252.798C252.917 149.119 253.133 148.857 253.446 148.655C253.758 148.453 254.111 148.352 254.503 148.352C254.577 148.352 254.669 148.354 254.78 148.357C254.89 148.359 254.974 148.364 255.031 148.369V149.392C254.997 149.384 254.919 149.371 254.797 149.354C254.677 149.334 254.551 149.324 254.417 149.324C254.099 149.324 253.815 149.391 253.565 149.524C253.318 149.655 253.122 149.837 252.977 150.07C252.835 150.3 252.764 150.562 252.764 150.858V155H251.758ZM256.223 155V148.455H257.229V155H256.223ZM256.735 147.364C256.539 147.364 256.369 147.297 256.227 147.163C256.088 147.03 256.019 146.869 256.019 146.682C256.019 146.494 256.088 146.334 256.227 146.2C256.369 146.067 256.539 146 256.735 146C256.931 146 257.098 146.067 257.237 146.2C257.379 146.334 257.45 146.494 257.45 146.682C257.45 146.869 257.379 147.03 257.237 147.163C257.098 147.297 256.931 147.364 256.735 147.364ZM261.73 155.136C261.116 155.136 260.588 154.991 260.145 154.702C259.702 154.412 259.361 154.013 259.122 153.504C258.883 152.996 258.764 152.415 258.764 151.761C258.764 151.097 258.886 150.51 259.131 150.001C259.378 149.49 259.721 149.091 260.162 148.804C260.605 148.514 261.122 148.369 261.713 148.369C262.173 148.369 262.588 148.455 262.957 148.625C263.327 148.795 263.629 149.034 263.865 149.341C264.101 149.648 264.247 150.006 264.304 150.415H263.298C263.221 150.116 263.051 149.852 262.787 149.622C262.525 149.389 262.173 149.273 261.73 149.273C261.338 149.273 260.994 149.375 260.699 149.58C260.406 149.781 260.177 150.067 260.013 150.436C259.851 150.803 259.77 151.233 259.77 151.727C259.77 152.233 259.849 152.673 260.008 153.048C260.17 153.423 260.398 153.714 260.69 153.922C260.986 154.129 261.332 154.233 261.73 154.233C261.991 154.233 262.229 154.188 262.442 154.097C262.655 154.006 262.835 153.875 262.983 153.705C263.131 153.534 263.236 153.33 263.298 153.091H264.304C264.247 153.477 264.106 153.825 263.882 154.135C263.66 154.442 263.366 154.686 263 154.868C262.636 155.047 262.213 155.136 261.73 155.136ZM267.922 151.318C267.922 152.392 267.781 153.381 267.5 154.284C267.221 155.185 266.822 156.014 266.302 156.773H265.416C265.621 156.491 265.811 156.145 265.987 155.733C266.166 155.324 266.322 154.875 266.456 154.386C266.589 153.895 266.693 153.388 266.767 152.865C266.844 152.339 266.882 151.824 266.882 151.318C266.882 150.642 266.817 149.956 266.686 149.26C266.555 148.564 266.379 147.918 266.157 147.321C265.936 146.724 265.689 146.239 265.416 145.864H266.302C266.822 146.622 267.221 147.453 267.5 148.357C267.781 149.257 267.922 150.244 267.922 151.318Z" fill="black"/>
<path d="M102.002 95.5L102.002 123.5L348.002 123.5L348.002 96.4762" stroke="black"/>
</svg>
